<?xml version="1.0" standalone="no"?>
<!DOCTYPE svg PUBLIC "-//W3C//DTD SVG 20010904//EN"
 "http://www.w3.org/TR/2001/REC-SVG-20010904/DTD/svg10.dtd">
<svg version="1.0" xmlns="http://www.w3.org/2000/svg"
 width="400.000000pt" height="400.000000pt" viewBox="0 0 400.000000 400.000000"
 preserveAspectRatio="xMidYMid meet">
<metadata>
Created by potrace 1.14, written by Peter Selinger 2001-2017
</metadata>
<g transform="translate(0.000000,400.000000) scale(0.100000,-0.100000)"
fill="#000000" stroke="none">
<path d="M0 2000 l0 -2000 2000 0 2000 0 0 2000 0 2000 -2000 0 -2000 0 0
-2000z m3550 410 l0 -170 -235 -157 -236 -157 253 -253 253 -253 -205 0 -205
0 -387 387 -388 388 0 183 c0 153 2 183 14 180 8 -2 112 -95 231 -208 119
-113 220 -206 225 -208 5 -2 156 96 337 217 180 121 331 220 336 220 4 1 7
-75 7 -169z m-2750 -62 l0 -213 -145 145 -145 145 0 67 0 68 145 0 145 0 0
-212z m939 197 c184 -44 342 -196 403 -388 25 -79 27 -218 5 -305 -42 -160
-150 -297 -291 -366 -114 -57 -183 -65 -528 -66 l-298 0 0 345 c0 190 3 345 7
345 4 0 70 -62 145 -137 l138 -138 0 -63 0 -64 178 4 c198 4 221 10 292 74 56
51 82 105 88 185 9 124 -47 222 -154 275 -52 26 -66 27 -230 32 l-174 5 0
-164 0 -164 -145 145 -145 145 0 157 0 158 323 0 c252 0 336 -4 386 -15z
m-1077 -392 l138 -138 0 -297 0 -298 -145 0 -145 0 0 435 c0 239 3 435 7 435
4 0 70 -62 145 -137z m1890 -230 l138 -138 0 -182 0 -183 -145 0 -145 0 0 320
c0 176 3 320 7 320 4 0 70 -62 145 -137z"/>
</g>
</svg>
